<svg width="55" height="42" viewBox="0 0 55 42" fill="none" xmlns="http://www.w3.org/2000/svg">
<path d="M24.336 9.632C19.5573 9.97333 15.9307 11.424 13.456 13.984C10.9813 16.4587 9.95733 19.8293 10.384 24.096H11.92C12.5173 22.2187 14.096 21.28 16.656 21.28C18.96 21.28 20.9653 22.176 22.672 23.968C24.3787 25.76 25.232 28.1067 25.232 31.008C25.232 34.1653 24.208 36.7253 22.16 38.688C20.112 40.6507 17.424 41.632 14.096 41.632C9.91467 41.632 6.672 40.096 4.368 37.024C2.064 33.8667 0.912 29.728 0.912 24.608C0.912 18.3787 2.78933 13.0027 6.544 8.48C10.384 3.87199 16.3147 1.31199 24.336 0.799995V9.632ZM53.264 9.632C48.4853 9.97333 44.8587 11.424 42.384 13.984C39.9093 16.4587 38.8427 19.8293 39.184 24.096H40.72C41.3173 22.2187 42.9387 21.28 45.584 21.28C47.888 21.28 49.8933 22.176 51.6 23.968C53.3067 25.76 54.16 28.1067 54.16 31.008C54.16 34.1653 53.136 36.7253 51.088 38.688C49.04 40.6507 46.352 41.632 43.024 41.632C38.7573 41.632 35.472 40.096 33.168 37.024C30.9493 33.8667 29.84 29.728 29.84 24.608C29.84 18.3787 31.7173 13.0027 35.472 8.48C39.312 3.87199 45.2427 1.31199 53.264 0.799995V9.632Z" fill="white"/>
</svg>
